<svg width="40" height="40" viewBox="0 0 40 40" fill="none" xmlns="http://www.w3.org/2000/svg">
<g clip-path="url(#clip0_5_458)">
<path d="M29.7436 0.512833H10.2564C4.87517 0.512833 0.512817 4.87519 0.512817 10.2564V29.7436C0.512817 35.1248 4.87517 39.4872 10.2564 39.4872H29.7436C35.1248 39.4872 39.4872 35.1248 39.4872 29.7436V10.2564C39.4872 4.87519 35.1248 0.512833 29.7436 0.512833Z" stroke="white"/>
<path d="M14.6887 17.0696C16.0037 17.0696 17.0696 16.0036 17.0696 14.6886C17.0696 13.3737 16.0037 12.3077 14.6887 12.3077C13.3737 12.3077 12.3077 13.3737 12.3077 14.6886C12.3077 16.0036 13.3737 17.0696 14.6887 17.0696Z" fill="white"/>
<path d="M14.6887 29.3773C16.0037 29.3773 17.0696 28.3113 17.0696 26.9963C17.0696 25.6814 16.0037 24.6154 14.6887 24.6154C13.3737 24.6154 12.3077 25.6814 12.3077 26.9963C12.3077 28.3113 13.3737 29.3773 14.6887 29.3773Z" fill="white"/>
<path d="M25.9708 23.2234C27.2858 23.2234 28.3517 22.1575 28.3517 20.8425C28.3517 19.5275 27.2858 18.4615 25.9708 18.4615C24.6558 18.4615 23.5898 19.5275 23.5898 20.8425C23.5898 22.1575 24.6558 23.2234 25.9708 23.2234Z" fill="white"/>
</g>
<defs>
<clipPath id="clip0_5_458">
<rect width="40" height="40" fill="white"/>
</clipPath>
</defs>
</svg>
